<svg xmlns="http://www.w3.org/2000/svg" viewBox="0 0 1200 630" role="img" aria-labelledby="title desc">
  <title id="title">Kinton Technologies social preview</title>
  <desc id="desc">A branded preview image for Kinton Technologies, featuring the K monogram and business description.</desc>
  <defs>
    <linearGradient id="bg" x1="0" x2="1">
      <stop offset="0%" stop-color="#171717"/>
      <stop offset="100%" stop-color="#2b2b2b"/>
    </linearGradient>
    <linearGradient id="gold" x1="0" x2="1">
      <stop offset="0%" stop-color="#f5d884"/>
      <stop offset="100%" stop-color="#b8831a"/>
    </linearGradient>
  </defs>
  <rect width="1200" height="630" fill="url(#bg)"/>
  <rect x="90" y="70" width="1020" height="490" rx="28" fill="#111111" stroke="#d8ad45" stroke-width="2" opacity="0.92"/>
  <g transform="translate(140 120)">
    <rect width="220" height="220" rx="28" fill="#0f0f0f"/>
    <path d="M50 32V180H92V104L154 180H204L138 104L204 32H162L92 95V32H50Z" fill="url(#gold)"/>
    <path d="M83 32V180H120V109L155 180H182L146 150L191 32H153L120 89V32H83Z" fill="#fff0c9" opacity="0.9"/>
  </g>
  <g transform="translate(430 170)">
    <text x="0" y="0" font-family="Montserrat, Arial, sans-serif" font-size="60" font-weight="800" letter-spacing="8" fill="#F4F1EA">KINTON</text>
    <text x="0" y="90" font-family="Montserrat, Arial, sans-serif" font-size="48" font-weight="600" fill="#D9B65C">TECHNOLOGIES</text>
    <text x="0" y="165" font-family="Montserrat, Arial, sans-serif" font-size="30" font-weight="500" fill="#EFEAE1">Websites • Apps • Branding</text>
    <text x="0" y="220" font-family="Montserrat, Arial, sans-serif" font-size="22" font-weight="500" fill="#C8C4BE">Kadoma, Zimbabwe</text>
  </g>
</svg>
